<?xml version="1.0" encoding="UTF-8"?>
<svg id="Capa_2" data-name="Capa 2" xmlns="http://www.w3.org/2000/svg" viewBox="0 0 181.47 179.57">
  <defs>
    <style>
      .cls-1 {
        fill: #784848;
      }

      .cls-2 {
        fill: none;
      }

      .cls-3 {
        fill: #000100;
      }
    </style>
  </defs>
  <g id="Capa_1-2" data-name="Capa 1">
    <path class="cls-2" d="M111.52,48.32c0-11.46-9.32-20.78-20.78-20.78s-20.78,9.32-20.78,20.78,9.32,20.78,20.78,20.78,20.78-9.32,20.78-20.78Z"/>
    <path class="cls-1" d="M171.03,151.84c2.46-10.34,7.87-35.75,6.1-52.34-4.47,2.97-9.12,5.72-13.86,8.19-6.97,3.64-14.28,6.76-21.75,9.29,2.36,2,6.1,5.61,6.41,8.54.04.38-.03.77-.21,1.12-1.35,2.66-9.91,16.03-45.62,18.23-.55.04-1.09-.16-1.49-.54s-.63-.91-.63-1.46v-49.62c0-.92.62-1.72,1.51-1.94,19.76-4.95,33.56-22.63,33.56-42.99,0-24.44-19.88-44.32-44.32-44.32s-44.32,19.88-44.32,44.32c0,20.37,13.8,38.05,33.56,42.99.89.22,1.51,1.02,1.51,1.94v49.62c0,.55-.23,1.08-.63,1.46s-.94.58-1.49.54c-36.47-2.25-44.79-16.6-45.62-18.23-.18-.34-.25-.73-.21-1.12.31-2.94,4.06-6.54,6.41-8.54-7.47-2.53-14.78-5.65-21.76-9.29-4.73-2.47-9.38-5.22-13.85-8.19-1.75,16.49,3.66,41.97,6.11,52.33,2.88-6.37,9.48-11.13,11.81-12.66.91-.6,2.14-.36,2.75.54,3.96,5.82,25.49,34.59,64.19,35.82.37-.44.92-.71,1.53-.71h0c.61,0,1.16.28,1.53.71,38.7-1.23,60.23-30,64.19-35.82.61-.9,1.84-1.15,2.75-.54,2.33,1.53,8.94,6.3,11.81,12.67ZM90.74,73.1c-13.67,0-24.78-11.12-24.78-24.78s11.12-24.78,24.78-24.78,24.78,11.12,24.78,24.78-11.12,24.78-24.78,24.78Z"/>
    <path class="cls-3" d="M180.84,96.92h0s-.18-1.18-.18-1.18c-.1-.68-.55-1.26-1.18-1.54-.63-.28-1.36-.21-1.93.18l-.98.67c-4.85,3.32-9.95,6.37-15.14,9.08-7.45,3.89-15.3,7.17-23.33,9.76l-1.38.44c-.71.23-1.24.84-1.36,1.58-.12.74.18,1.48.78,1.93l1.16.87c2.97,2.22,5.81,5.18,6.5,6.72-1.77,2.66-10.47,13.03-39.82,15.3v-45.94c22.23-6.33,37.11-27.58,34.85-51.2C136.59,20.19,117.39,1.62,93.93.1c-28.08-1.81-51.51,20.52-51.51,48.22,0,21.68,14.34,40.57,35.07,46.47v45.94c-29.35-2.27-38.05-12.64-39.82-15.3.7-1.54,3.53-4.5,6.51-6.72l1.16-.87c.6-.45.9-1.19.78-1.93-.12-.74-.65-1.35-1.36-1.58l-1.38-.45c-8.02-2.58-15.87-5.86-23.33-9.76-5.19-2.71-10.28-5.76-15.14-9.08l-.98-.67c-.57-.39-1.3-.46-1.93-.18-.63.27-1.08.86-1.18,1.54l-.18,1.18c-2.77,18.48,4.14,48.72,6.4,57.87.39,1.56,1.85,2.6,3.45,2.46l.22-.02c1.35-.12,2.44-1.07,2.85-2.36,1.55-4.94,6.55-9.19,9.32-11.25,6.39,8.73,29.1,35.46,67.82,35.95h.07c38.72-.49,61.43-27.22,67.83-35.95,2.22,1.65,6.73,5.54,8.49,11.22.45,1.44,2.13,2.58,3.64,2.56h0c1.81-.02,3.37-1.26,3.79-3.01,2.35-9.63,9.01-39.43,6.31-57.47ZM156.47,139.71c-3.97,5.82-25.5,34.59-64.19,35.82-.37-.44-.92-.71-1.53-.71h0c-.61,0-1.16.28-1.53.71-38.7-1.23-60.23-30-64.19-35.82-.62-.9-1.84-1.15-2.75-.54-2.33,1.53-8.93,6.3-11.81,12.66-2.45-10.36-7.85-35.85-6.11-52.33,4.47,2.97,9.13,5.72,13.85,8.19,6.98,3.64,14.28,6.76,21.76,9.29-2.36,2-6.1,5.6-6.41,8.54-.04.38.03.77.21,1.12.83,1.63,9.15,15.98,45.62,18.23.55.04,1.09-.16,1.49-.54s.63-.91.63-1.46v-49.62c0-.92-.62-1.72-1.51-1.94-21.01-5.26-35.28-24.92-33.39-46.89,1.92-22.25,20.53-39.76,42.85-40.41,25.03-.72,45.63,19.43,45.63,44.3,0,20.37-13.8,38.05-33.56,42.99-.89.22-1.51,1.02-1.51,1.94v49.62c0,.55.23,1.08.63,1.46s.94.58,1.49.54c35.71-2.21,44.27-15.57,45.62-18.23.18-.34.25-.73.21-1.12-.31-2.94-4.06-6.54-6.41-8.54,7.47-2.53,14.78-5.65,21.75-9.29,4.73-2.47,9.38-5.22,13.86-8.19,1.77,16.59-3.65,42-6.1,52.34-2.88-6.37-9.49-11.14-11.81-12.67-.91-.6-2.14-.36-2.75.54Z"/>
    <path class="cls-3" d="M115.52,48.32c0-13.67-11.12-24.78-24.78-24.78s-24.78,11.12-24.78,24.78,11.12,24.78,24.78,24.78,24.78-11.12,24.78-24.78ZM69.96,48.32c0-11.46,9.32-20.78,20.78-20.78s20.78,9.32,20.78,20.78-9.32,20.78-20.78,20.78-20.78-9.32-20.78-20.78Z"/>
  </g>
</svg>