<?xml version="1.0" encoding="UTF-8"?>
<svg id="Capa_2" data-name="Capa 2" xmlns="http://www.w3.org/2000/svg" viewBox="0 0 606.56 260.41">
  <defs>
    <style>
      .cls-1 {
        fill: #fff;
      }

      .cls-2 {
        fill: none;
      }

      .cls-3 {
        fill: #edeb95;
      }

      .cls-4 {
        fill: #c9c687;
      }

      .cls-5 {
        fill: #774747;
      }
    </style>
  </defs>
  <g id="Capa_1-2" data-name="Capa 1">
    <g>
      <path class="cls-2" d="M303.29,25.06c-3.75,0-6.81,3.05-6.81,6.81s3.05,6.81,6.81,6.81,6.81-3.05,6.81-6.81-3.05-6.81-6.81-6.81Z"/>
      <g>
        <path class="cls-1" d="M342.03,128.29l-1.49-.47-.63,39.39-17.14.96.1-45.9-.1-.03c.02-3.68.12-19.31.16-26.95h0c0-1.38.02-2.51.02-3.25h19.09l2.35-3.12h20.38v-42.03h-20.59l-2.73-3.66h-8.42c1.38-3.58,2.12-7.43,2.12-11.38,0-17.57-14.29-31.86-31.86-31.86s-31.86,14.29-31.86,31.86c0,3.95.74,7.8,2.12,11.38h-8.42l-2.73,3.66h-20.59v42.03h20.38l2.35,3.12h19.09c0,1.2.02,3.39.04,6.07h0c.05,8.15.13,20.85.15,24.12l-.15.05v54.1h-35.25l-2.04-40.06c-14.62,8.67-21.87,19.37-24.71,24.52l7.06,20.45c.87,4.88,2.54,10.29,5.56,15.75,8.97,16.19,23.8,22.36,30.17,24.34,18.21,6.92,26.71,18.45,28.89,21.84l11.07,17.2,10.29-17.67c1.93-3.31,9.58-14.58,27.37-21.35,6.38-1.99,21.23-8.16,30.2-24.35,3.02-5.46,4.69-10.87,5.56-15.75l7.06-20.44c-3.83-6.94-15.68-24.02-42.88-32.55Z"/>
        <path class="cls-5" d="M338.27,140.25c1.07,3.45,2.61,11.95,2.25,31.82,1.82-1.8,4.79-4.29,7.94-5.05l1.79-.43.02,1.84c.05,3.64-.62,9.02-4.06,13.93-.24.35-.49.68-.75,1.01-4.61,5.83-11.76,8.31-19.1,6.64-7.55-1.71-13.31-7.44-15.01-14.94-1.04-4.59-1.53-8.8-1.45-12.51.11-5.16.27-30.81.41-53.44.07-11.89.14-23.28.2-31.26v-1.46h14.75l2.79,3.12h7.75l2.35-3.12h14.09v-16.97h-14.34l-2.73-3.66h-7.53l-3.33,3.66h-13.66v-1.48c.04-3.81.05-6.42.06-7.28v-.93s.84-.4.84-.4c6.73-3.18,11.07-10.04,11.07-17.48,0-10.66-8.67-19.33-19.33-19.33s-19.33,8.67-19.33,19.33c0,7.44,4.35,14.3,11.07,17.48l.84.4v.93c.01.86.03,3.47.05,7.28v1.48s-13.65,0-13.65,0l-3.33-3.66h-7.53l-2.73,3.66h-14.34v16.97h14.09l2.35,3.12h7.75l2.79-3.12h14.74v1.46c.07,7.97.14,19.37.21,31.26.14,22.63.29,48.28.41,53.44.08,3.71-.4,7.92-1.45,12.51-1.7,7.5-7.46,13.23-15.01,14.94-7.35,1.67-14.49-.81-19.1-6.64-.26-.33-.51-.67-.76-1.02-3.43-4.91-4.1-10.28-4.05-13.93l.02-1.85,1.8.43c3.15.76,6.12,3.24,7.94,5.05-.37-19.89-30.41-10.61-33.41-5.17,2.13-.68,4-.84,5.31-.84.58,0,1.05.03,1.38.06l1.48.15-.16,1.48c-.5,4.67-.57,13.89,4.6,23.21,6.93,12.51,18.54,17.13,23.21,18.54l.09.03c21.83,8.19,32.33,22.25,35.33,26.91,2.75-4.72,12.43-18.77,34.11-26.9l.09-.03c4.68-1.41,16.32-6.04,23.24-18.55,5.17-9.33,5.1-18.55,4.6-23.21l-.16-1.48,1.48-.15c1.09-.11,3.63-.2,6.69.77-3-5.44-12.68-19.44-35.66-26.65ZM303.29,41.62c-5.38,0-9.75-4.38-9.75-9.75s4.38-9.75,9.75-9.75,9.75,4.38,9.75,9.75-4.38,9.75-9.75,9.75Z"/>
        <path d="M379.53,172.67l-1.73-4.58s0,0,0,0c-.12-.32-39.55-21.86-40.28,6.54l3.47,1.27c.93-1.14,3.54-3.88,6.28-5.3-.23,2.98-1.08,6.66-3.46,10.06-.21.3-.43.59-.65.87-3.89,4.91-9.93,7-16.14,5.6-6.44-1.46-11.34-6.33-12.79-12.72-.99-4.36-1.45-8.32-1.37-11.79.12-5.19.26-29.74.41-53.49.07-11.18.13-21.92.19-29.79h10.5l2.79,3.12h10.53l2.35-3.12h15.57v-22.86h-15.81l-2.73-3.66h-10.31l-3.33,3.66h-9.39c.02-2.18.03-3.85.03-4.89,7.27-3.83,11.92-11.47,11.92-19.73,0-12.29-9.99-22.28-22.28-22.28s-22.28,9.99-22.28,22.28c0,8.26,4.65,15.9,11.92,19.73,0,1.04.02,2.72.03,4.89h-9.39l-3.33-3.66h-10.31l-2.73,3.66h-15.81v22.86h15.57l2.35,3.12h10.53l2.79-3.12h10.5c.06,7.87.12,18.61.19,29.79.14,23.75.29,48.3.41,53.49.08,3.47-.38,7.44-1.37,11.79-1.45,6.39-6.35,11.26-12.79,12.72-6.21,1.41-12.25-.68-16.14-5.6-.23-.28-.44-.57-.65-.87-2.37-3.39-3.23-7.08-3.46-10.06,2.74,1.42,5.35,4.15,6.28,5.3l3.61,4.48-.15-5.75c-.72-28.09-40.2-6.76-40.28-6.54l-1.73,4.58,4.41-2.14c2.43-1.18,4.64-1.49,6.13-1.53-.36,5.34.06,14.31,5.09,23.38,7.43,13.41,19.85,18.39,24.89,19.92,25.02,9.4,34.55,26.87,34.64,27.04l1.86,3.54,1.64-3.63c.08-.17,8.37-17.58,33.28-26.94,5.06-1.53,17.5-6.52,24.92-19.93,5.03-9.07,5.45-18.04,5.09-23.38,1.49.04,3.69.35,6.13,1.53l4.41,2.14ZM367.24,166.12l-1.48.15.16,1.48c.5,4.67.57,13.88-4.6,23.21-6.93,12.51-18.56,17.14-23.24,18.55l-.09.03c-21.68,8.13-31.36,22.18-34.11,26.9-3-4.66-13.5-18.72-35.33-26.91l-.09-.03c-4.67-1.41-16.28-6.03-23.21-18.54-5.17-9.33-5.1-18.55-4.6-23.21l.16-1.48-1.48-.15c-.33-.03-.8-.06-1.38-.06-1.31,0-3.18.16-5.31.84,3-5.44,33.05-14.72,33.41,5.17-1.82-1.81-4.79-4.29-7.94-5.05l-1.8-.43-.02,1.85c-.04,3.64.62,9.02,4.05,13.93.24.35.5.69.76,1.02,4.61,5.83,11.75,8.31,19.1,6.64,7.55-1.71,13.31-7.44,15.01-14.94,1.04-4.59,1.53-8.8,1.45-12.51-.12-5.16-.27-30.81-.41-53.44-.07-11.89-.14-23.28-.2-31.26v-1.46h-14.75l-2.79,3.12h-7.75l-2.35-3.12h-14.09v-16.97h14.34l2.73-3.66h7.53l3.33,3.66h13.66v-1.48c-.04-3.81-.05-6.42-.06-7.28v-.93s-.84-.4-.84-.4c-6.73-3.18-11.07-10.05-11.07-17.48,0-10.66,8.67-19.33,19.33-19.33s19.33,8.67,19.33,19.33c0,7.44-4.35,14.3-11.07,17.48l-.84.4v.93c-.01.86-.03,3.47-.05,7.28v1.48s13.65,0,13.65,0l3.33-3.66h7.53l2.73,3.66h14.34v16.97h-14.09l-2.35,3.12h-7.75l-2.79-3.12h-14.74v1.46c-.07,7.97-.14,19.37-.21,31.26-.14,22.63-.29,48.28-.41,53.44-.08,3.71.4,7.92,1.45,12.51,1.71,7.5,7.46,13.23,15.01,14.94,7.34,1.67,14.49-.82,19.1-6.64.26-.33.51-.67.75-1.01,3.44-4.91,4.1-10.29,4.06-13.93l-.02-1.84-1.79.43c-3.15.76-9.12-23.32-10.19-26.77,22.98,7.21,32.66,21.21,35.66,26.65-3.07-.97-5.6-.88-6.69-.77Z"/>
      </g>
      <path d="M313.04,31.86c0-5.38-4.38-9.75-9.75-9.75s-9.75,4.38-9.75,9.75,4.38,9.75,9.75,9.75,9.75-4.38,9.75-9.75ZM303.29,38.67c-3.75,0-6.81-3.05-6.81-6.81s3.05-6.81,6.81-6.81,6.81,3.05,6.81,6.81-3.05,6.81-6.81,6.81Z"/>
    </g>
    <g>
      <path class="cls-3" d="M159.51,157.21s.08,0,.12.01c.01,0,0-.01-.12-.01Z"/>
      <g>
        <g>
          <path class="cls-3" d="M396.48,126.21c-.48,0-1.21.04-2.17.11s-1.69.11-2.17.11c-.46,0-1.15-.04-2.08-.11-.93-.08-1.62-.11-2.08-.11-.51,0-.76.42-.76,1.26,0,3.28.12,8.21.36,14.82s.36,11.55.36,14.85c0,3.81-.09,6.25-.27,7.31-.46-.48-.95-1.05-1.49-1.71-12.04-15.84-20.97-27.78-26.81-35.8-.56-.74-.95-1.1-1.18-1.1-.48,0-1.14.08-1.98.23-.99.18-1.66.28-2.02.3-.94.08-2.23.13-3.88.15-.63.03-.94.23-.91.61l.04.5c.2,4.16.33,7.29.38,9.37.23,8,.34,13.53.34,16.61,0,2.82-.13,7.04-.4,12.66-.27,5.62-.4,9.83-.4,12.62,0,.51.32.76.95.76.46,0,1.14-.04,2.04-.11.9-.08,1.58-.11,2.04-.11.43,0,1.09.04,1.98.11s1.55.11,1.98.11c.51,0,.76-.42.76-1.26,0-3.91-.06-9.78-.19-17.61s-.19-13.71-.19-17.62c0-1.04.13-1.56.38-1.56.28.25,1.28,1.5,3.01,3.73,11.15,14.65,19.46,25.67,24.95,33.06.63.84,1.18,1.26,1.64,1.26.41,0,1.03-.04,1.87-.11s1.46-.11,1.87-.11c.38,0,.95.04,1.71.11s1.33.11,1.71.11c.63,0,.95-.42.95-1.26,0-2.77-.03-6.91-.08-12.43-.05-5.52-.08-9.67-.08-12.44,0-2.95.1-7.36.3-13.25s.3-10.3.3-13.22c0-.56-.27-.84-.8-.84Z"/>
          <path class="cls-3" d="M431.97,126.67c-.41-.94-.72-1.41-.95-1.41-.43,0-1.11.07-2.04.21-.93.14-1.62.21-2.08.21-.48,0-1.19-.06-2.13-.19s-1.65-.19-2.13-.19c-.36,0-.69.48-.99,1.45-1.22,3.28-2.18,5.73-2.89,7.35-3.99,9.8-6.37,15.73-7.16,17.79l-9.33,25.52c-.36.89-.53,1.46-.53,1.71,0,.36.25.53.76.53h8.57c.56,0,1.35-1.92,2.38-5.75,1.03-3.83,2-5.79,2.91-5.87.58-.05,2.97-.08,7.16-.08h6.02c3.96,0,6.41.03,7.35.08,1.14.05,2.27,2,3.37,5.85,1.1,3.85,2.01,5.77,2.72,5.77.48,0,1.21-.04,2.17-.11s1.69-.11,2.17-.11,1.19.04,2.11.11,1.63.11,2.11.11c.61,0,.91-.15.91-.46,0-.18-3.82-10.03-11.46-29.55-5.41-13.89-8.42-21.54-9.03-22.97ZM429.27,159.69h-3.92c-2.39,0-3.63-.01-3.73-.04-1.93-.15-2.89-.66-2.89-1.52,0-.63,2.63-7.66,7.88-21.06.91,1.78,2.48,5.51,4.68,11.2,2.29,5.87,3.43,9.17,3.43,9.9,0,1.02-1.82,1.52-5.45,1.52Z"/>
          <path class="cls-3" d="M498.58,128.38c0-.98,0-1.47.03-1.48-.09-.46-.4-.69-.94-.69-.46,0-1.15.04-2.08.11s-1.62.11-2.08.11-1.16-.04-2.09-.11-1.65-.11-2.13-.11c-.56,0-.84.25-.84.76,0,1.96.06,4.9.19,8.84s.19,6.89.19,8.87c0,1.17-1.76,5.08-5.29,11.73-2.44,4.6-4.7,8.67-6.78,12.23-7.87-13.66-11.81-21.35-11.81-23.08,0-2.08.13-5.19.4-9.33.27-4.14.4-7.24.4-9.29,0-.48-.29-.72-.88-.72-.46,0-1.16.04-2.09.11s-1.64.11-2.09.11c-.48,0-1.19-.04-2.11-.11s-1.63-.11-2.11-.11c-.61,0-.91.47-.91,1.41,0,2.01-.07,5.02-.21,9.04-.14,4.03-.21,7.04-.21,9.05,0,.89,2.55,6.14,7.66,15.77,5.97,11.22,8.99,16.91,9.06,17.06.36.74.71,1.1,1.07,1.1h7.66c.46,0,.88-.37,1.26-1.1l9.45-17.6c4.98-9.39,7.46-14.62,7.46-15.69,0-1.88-.03-4.69-.08-8.44-.05-3.74-.08-6.56-.08-8.44Z"/>
          <path class="cls-3" d="M531.68,126.67c-.41-.94-.72-1.41-.95-1.41-.43,0-1.11.07-2.04.21-.93.14-1.62.21-2.08.21-.48,0-1.19-.06-2.13-.19s-1.65-.19-2.13-.19c-.36,0-.69.48-.99,1.45-1.22,3.28-2.18,5.73-2.89,7.35-3.99,9.8-6.37,15.73-7.16,17.79l-9.33,25.52c-.36.89-.53,1.46-.53,1.71,0,.36.25.53.76.53h8.57c.56,0,1.35-1.92,2.38-5.75,1.03-3.83,2-5.79,2.91-5.87.58-.05,2.97-.08,7.16-.08h6.02c3.96,0,6.41.03,7.35.08,1.14.05,2.27,2,3.37,5.85,1.1,3.85,2.01,5.77,2.72,5.77.48,0,1.21-.04,2.17-.11s1.69-.11,2.17-.11,1.19.04,2.11.11,1.63.11,2.11.11c.61,0,.91-.15.91-.46,0-.18-3.82-10.03-11.46-29.55-5.41-13.89-8.42-21.54-9.03-22.97ZM528.98,159.69h-3.92c-2.39,0-3.63-.01-3.73-.04-1.93-.15-2.89-.66-2.89-1.52,0-.63,2.63-7.66,7.88-21.06.91,1.78,2.48,5.51,4.68,11.2,2.29,5.87,3.43,9.17,3.43,9.9,0,1.02-1.82,1.52-5.45,1.52Z"/>
          <path class="cls-3" d="M591.59,170.66c-.41,0-.99.08-1.75.23-.94.15-1.52.24-1.75.27-4.77.46-11.84.69-21.21.69-.46,0-.69-2.82-.69-8.46,0-1.32.01-3.33.04-6.02v-6.02c0-2.72.1-6.78.3-12.19s.3-9.46.3-12.15c0-.48-.3-.72-.91-.72-.46,0-1.17.04-2.13.11s-1.68.11-2.13.11c-.48,0-1.19-.04-2.13-.11s-1.64-.11-2.09-.11c-.63,0-.95.28-.95.84,0,2.95.13,7.36.4,13.24.27,5.88.4,10.29.4,13.23,0,2.79-.09,6.98-.29,12.57-.19,5.59-.29,9.76-.29,12.53,0,.63.32.95.95.95,1.78,0,4.43-.04,7.96-.11s6.18-.11,7.96-.11c1.88,0,4.7.11,8.46.32,3.76.21,6.58.32,8.46.32.71,0,1.16-.37,1.33-1.1.38-1.5.57-4.02.57-7.58,0-.48-.27-.72-.8-.72Z"/>
        </g>
        <g>
          <path class="cls-4" d="M396.48,126.21c-.48,0-1.21.04-2.17.11s-1.69.11-2.17.11c-.46,0-1.15-.04-2.08-.11-.93-.08-1.62-.11-2.08-.11-.51,0-.76.42-.76,1.26,0,3.28.12,8.21.36,14.82s.36,11.55.36,14.85c0,3.81-.09,6.25-.27,7.31-.46-.48-.95-1.05-1.49-1.71-12.04-15.84-20.97-27.78-26.81-35.8-.56-.74-.95-1.1-1.18-1.1-.48,0-1.14.08-1.98.23-.99.18-1.66.28-2.02.3-.94.08-2.23.13-3.88.15-.63.03-.94.23-.91.61l.04.5c.2,4.16.33,7.29.38,9.37.23,8,.34,13.53.34,16.61,0,2.82-.13,7.04-.4,12.66-.27,5.62-.4,9.83-.4,12.62,0,.51.32.76.95.76.46,0,1.14-.04,2.04-.11.9-.08,1.58-.11,2.04-.11.43,0,1.09.04,1.98.11s1.55.11,1.98.11c.51,0,.76-.42.76-1.26,0-3.91-.06-9.78-.19-17.61s-.19-13.71-.19-17.62c0-1.04.13-1.56.38-1.56.28.25,1.28,1.5,3.01,3.73,11.15,14.65,19.46,25.67,24.95,33.06.63.84,1.18,1.26,1.64,1.26.41,0,1.03-.04,1.87-.11s1.46-.11,1.87-.11c.38,0,.95.04,1.71.11s1.33.11,1.71.11c.63,0,.95-.42.95-1.26,0-2.77-.03-6.91-.08-12.43-.05-5.52-.08-9.67-.08-12.44,0-2.95.1-7.36.3-13.25s.3-10.3.3-13.22c0-.56-.27-.84-.8-.84Z"/>
          <path class="cls-4" d="M431.97,126.67c-.41-.94-.72-1.41-.95-1.41-.43,0-1.11.07-2.04.21-.93.14-1.62.21-2.08.21-.48,0-1.19-.06-2.13-.19s-1.65-.19-2.13-.19c-.36,0-.69.48-.99,1.45-1.22,3.28-2.18,5.73-2.89,7.35-3.99,9.8-6.37,15.73-7.16,17.79l-9.33,25.52c-.36.89-.53,1.46-.53,1.71,0,.36.25.53.76.53h8.57c.56,0,1.35-1.92,2.38-5.75,1.03-3.83,2-5.79,2.91-5.87.58-.05,2.97-.08,7.16-.08h6.02c3.96,0,6.41.03,7.35.08,1.14.05,2.27,2,3.37,5.85,1.1,3.85,2.01,5.77,2.72,5.77.48,0,1.21-.04,2.17-.11s1.69-.11,2.17-.11,1.19.04,2.11.11,1.63.11,2.11.11c.61,0,.91-.15.91-.46,0-.18-3.82-10.03-11.46-29.55-5.41-13.89-8.42-21.54-9.03-22.97ZM429.27,159.69h-3.92c-2.39,0-3.63-.01-3.73-.04-1.93-.15-2.89-.66-2.89-1.52,0-.63,2.63-7.66,7.88-21.06.91,1.78,2.48,5.51,4.68,11.2,2.29,5.87,3.43,9.17,3.43,9.9,0,1.02-1.82,1.52-5.45,1.52Z"/>
          <path class="cls-4" d="M498.58,128.38c0-.98,0-1.47.03-1.48-.09-.46-.4-.69-.94-.69-.46,0-1.15.04-2.08.11s-1.62.11-2.08.11-1.16-.04-2.09-.11-1.65-.11-2.13-.11c-.56,0-.84.25-.84.76,0,1.96.06,4.9.19,8.84s.19,6.89.19,8.87c0,1.17-1.76,5.08-5.29,11.73-2.44,4.6-4.7,8.67-6.78,12.23-7.87-13.66-11.81-21.35-11.81-23.08,0-2.08.13-5.19.4-9.33.27-4.14.4-7.24.4-9.29,0-.48-.29-.72-.88-.72-.46,0-1.16.04-2.09.11s-1.64.11-2.09.11c-.48,0-1.19-.04-2.11-.11s-1.63-.11-2.11-.11c-.61,0-.91.47-.91,1.41,0,2.01-.07,5.02-.21,9.04-.14,4.03-.21,7.04-.21,9.05,0,.89,2.55,6.14,7.66,15.77,5.97,11.22,8.99,16.91,9.06,17.06.36.74.71,1.1,1.07,1.1h7.66c.46,0,.88-.37,1.26-1.1l9.45-17.6c4.98-9.39,7.46-14.62,7.46-15.69,0-1.88-.03-4.69-.08-8.44-.05-3.74-.08-6.56-.08-8.44Z"/>
          <path class="cls-4" d="M531.68,126.67c-.41-.94-.72-1.41-.95-1.41-.43,0-1.11.07-2.04.21-.93.14-1.62.21-2.08.21-.48,0-1.19-.06-2.13-.19s-1.65-.19-2.13-.19c-.36,0-.69.48-.99,1.45-1.22,3.28-2.18,5.73-2.89,7.35-3.99,9.8-6.37,15.73-7.16,17.79l-9.33,25.52c-.36.89-.53,1.46-.53,1.71,0,.36.25.53.76.53h8.57c.56,0,1.35-1.92,2.38-5.75,1.03-3.83,2-5.79,2.91-5.87.58-.05,2.97-.08,7.16-.08h6.02c3.96,0,6.41.03,7.35.08,1.14.05,2.27,2,3.37,5.85,1.1,3.85,2.01,5.77,2.72,5.77.48,0,1.21-.04,2.17-.11s1.69-.11,2.17-.11,1.19.04,2.11.11,1.63.11,2.11.11c.61,0,.91-.15.91-.46,0-.18-3.82-10.03-11.46-29.55-5.41-13.89-8.42-21.54-9.03-22.97ZM528.98,159.69h-3.92c-2.39,0-3.63-.01-3.73-.04-1.93-.15-2.89-.66-2.89-1.52,0-.63,2.63-7.66,7.88-21.06.91,1.78,2.48,5.51,4.68,11.2,2.29,5.87,3.43,9.17,3.43,9.9,0,1.02-1.82,1.52-5.45,1.52Z"/>
          <path class="cls-4" d="M591.59,170.66c-.41,0-.99.08-1.75.23-.94.15-1.52.24-1.75.27-4.77.46-11.84.69-21.21.69-.46,0-.69-2.82-.69-8.46,0-1.32.01-3.33.04-6.02v-6.02c0-2.72.1-6.78.3-12.19s.3-9.46.3-12.15c0-.48-.3-.72-.91-.72-.46,0-1.17.04-2.13.11s-1.68.11-2.13.11c-.48,0-1.19-.04-2.13-.11s-1.64-.11-2.09-.11c-.63,0-.95.28-.95.84,0,2.95.13,7.36.4,13.24.27,5.88.4,10.29.4,13.23,0,2.79-.09,6.98-.29,12.57-.19,5.59-.29,9.76-.29,12.53,0,.63.32.95.95.95,1.78,0,4.43-.04,7.96-.11s6.18-.11,7.96-.11c1.88,0,4.7.11,8.46.32,3.76.21,6.58.32,8.46.32.71,0,1.16-.37,1.33-1.1.38-1.5.57-4.02.57-7.58,0-.48-.27-.72-.8-.72Z"/>
        </g>
      </g>
      <path class="cls-1" d="M591.59,156.49c-1.3,0-8.82.86-11.19.96,0,0,.61-27.54.61-30.43,0-8.35-6.63-14.9-15.09-14.9h-8.49c-5.81,0-10.76,3.1-13.3,7.76-3.98-7.89-10.63-8.79-13.4-8.79-1.17,0-7.24.04-8.38.04-4.23,0-9.28,1.91-12.49,6.97-2.75-3.73-7.17-6.05-12.19-6.05h-8.38c-5.07,0-9.48,2.38-12.19,6.11-2.71-3.72-7.14-6.11-12.23-6.11h-8.42c-5.31,0-9.89,2.69-12.57,6.86-4.02-6.98-10.22-7.81-12.87-7.81-1.17,0-7.24.04-8.38.04-4.57,0-10.12,2.24-13.24,8.27-2.57-4.43-7.34-7.36-12.93-7.36h-8.49c-6.72,0-12.28,4.37-14.21,10.57-1.06-1.44-2.04-2.77-2.94-4.01l-.17-.23c-4.21-5.55-9.11-6.71-12.47-6.71-1.37,0-8.45.7-8.45.7-4.24.17-8.07,1.92-10.78,4.94-2.66,2.96-3.98,6.78-3.71,10.77,0,0-.03,18.06-.05,32.68-4.84-12.38-15.17-38.78-15.57-39.71-3.89-8.99-11.06-9.96-13.96-9.96-1.17,0-7.24.04-8.38.04-5.19,0-11.63,2.88-14.36,10.92-1.34,3.59-13.22,33.81-13.22,33.81-.18.5-.62.87-1.14.96-.22.04-.45.08-.69.12-.37.06-.66.11-.86.14-1.3.12-2.8.22-4.51.3-.85.04-1.58-.64-1.58-1.49,0,0,.61-25.97.61-28.87,0-8.35-6.63-14.9-15.09-14.9h-8.49c-8.48,0-14.61,6.59-14.61,15.01,0,3.21.14,7.75.41,13.88.26,5.65-3.56,4.4-3.37-.81.21-5.64.31-9.79.31-12.68,0-8.35-6.12-15.4-14.58-15.4h-8.49c-4.97,0-9.32,2.27-12.06,5.84-.61.8-1.84.76-2.4-.08-4.01-6.05-9.73-6.79-12.24-6.79-1.17,0-7.23.04-8.38.04-3.02,0-6.46.98-9.35,3.39-.51.42-1.24.45-1.78.07-.17-.12-.35-.24-.53-.36-2.41-1.56-5.26-2.27-8.13-2.28-8.04-.02-35.97-.09-35.97-.09-3.1,0-6.01.94-8.42,2.61-.53.37-1.25.33-1.75-.08-3.46-2.85-7.21-3.29-9.13-3.29-1.17,0-7.23.04-8.38.04-5.19,0-11.63,2.88-14.36,10.92-.02.07-.05.13-.07.2-.41,1.09-1.82,1.29-2.56.4-1.74-2.07-3.84-3.89-6.27-5.41-5.44-3.4-12.26-5.12-20.26-5.12-2.27,0-18.17-.08-20.45-.08-8.48,0-15.13,6.59-15.13,15.01v51.72c0,8.44,6.64,15.05,15.13,15.05,1.41,0,23.69-.08,25.44-.08,3.55,0,6.9-.6,10.01-1.76.41-.15.85-.12,1.24.09,2.11,1.11,4.54,1.75,7.14,1.75h8.57c8.3,0,12.25-5.72,14.31-10.78.23-.55.78-.91,1.37-.91h.31c.59,0,1.13.34,1.36.88,2.13,4.97,6.24,10.81,14.55,10.81h51.53c8.3,0,12.25-5.72,14.31-10.78.23-.55.78-.91,1.37-.91h.31c.59,0,1.13.34,1.36.88,2.13,4.97,6.24,10.81,14.56,10.81h102.83c8.3,0,12.25-5.72,14.31-10.78.23-.55.78-.91,1.37-.91h.31c.59,0,1.13.34,1.36.88,2.13,4.97,6.24,10.81,14.56,10.81h8.57c5,0,9.35-2.26,12.08-5.79,2.74,3.54,7.06,5.79,12.02,5.79h8.04c6.88,0,12.54-4.58,14.34-11.01,1.08,1.45,3.08,4.14,3.08,4.14,4.53,5.98,10.05,6.87,12.93,6.87h22.36c8.8,0,12.71-6.43,14.67-11.69h2.33c2.02,5.13,6.1,11.69,14.92,11.69h8.57c4.31,0,8.13-1.67,10.86-4.39,2.81,2.81,6.49,4.39,10.51,4.39h7.66c4.12,0,7.9-1.64,10.77-4.53,2.7,2.8,6.53,4.53,10.86,4.53h8.57c8.8,0,12.71-6.43,14.67-11.69h2.33c2.02,5.13,6.1,11.69,14.92,11.69.88,0,45.64.42,47.8.42,7.28,0,13.33-4.76,15.09-11.85.69-2.73.99-6.13.99-11.01,0-8.35-6.58-14.9-14.97-14.9Z"/>
      <g>
        <path class="cls-4" d="M92.34,124.98c-.47-1.09-1.72-3.97-4.85-3.97-.66,0-1.48.08-2.68.26-1.04.16-1.4.16-1.44.16-.1,0-.52-.01-1.56-.15-1.15-.16-2.01-.23-2.7-.23-1.35,0-3.78.56-5.01,4.3-1.17,3.13-2.1,5.5-2.77,7.04l-.04.1c-4.04,9.94-6.4,15.79-7.21,17.93l-4.53,12.38c-.07-2.82-.83-5.57-2.29-8.15-.8-1.42-1.75-2.67-2.84-3.75.71-.87,1.36-1.85,1.93-2.92,1.35-2.51,2.03-5.02,2.03-7.48,0-6.53-2.69-11.66-7.79-14.84-3.84-2.4-8.89-3.62-15.01-3.62-2.28,0-5.69-.01-10.22-.04-4.56-.03-7.97-.04-10.23-.04-2.97,0-5.2,2.19-5.2,5.09s.14,7.53.4,13.46c.26,5.81.4,10.21.4,13.08,0,2.71-.13,6.88-.4,12.39-.27,5.64-.4,9.94-.4,12.79s2.24,5.13,5.2,5.13c1.26,0,3.09-.05,5.57-.16,2.33-.1,4.08-.15,5.21-.15,1.58,0,4.02.04,7.23.11,3.28.08,5.78.12,7.43.12,5.41,0,9.96-2.04,13.55-6.03-.12.49-.17.91-.17,1.32,0,2.73,2.16,4.79,5.01,4.79h8.57c4.1,0,5.31-4.53,6.49-8.9.35-1.31.64-2.19.87-2.77,1.01-.01,2.6-.02,5.1-.02h6.02c2.81,0,4.56.01,5.66.03.24.54.58,1.42.98,2.81,1.13,3.94,2.54,8.85,6.81,8.85.6,0,1.42-.04,2.51-.13,1.11-.09,1.63-.1,1.84-.1s.71.01,1.77.1c1.05.09,1.86.13,2.46.13,3.39,0,5.17-2.37,5.17-4.71q0-1.07-11.75-31.1c-5.48-14.06-8.45-21.62-9.09-23.11ZM28.06,137.91c0-.22.02-.42.03-.62.59-.02,1.33-.04,2.24-.04,5.05,0,7.16.52,7.94.82,1.35.53,2.09,1.2,2.09,3.27,0,2.31-6.1,2.49-7.97,2.49-1.99,0-3.41-.05-4.4-.11-.02-.97-.03-1.7-.03-2.19,0-.79.04-2.01.11-3.62ZM39.99,166.7c-.49.29-2.1.96-6.47.96-2.23,0-4.06-.03-5.48-.09,0-.24-.01-.5-.02-.76-.05-1.83-.07-3.18-.07-4.07v-2.9c1.16-.07,2.87-.12,5.35-.12,4.12,0,5.9.47,6.63.77,1.01.4,1.46.83,1.46,2.33,0,3.06-1.04,3.68-1.39,3.89ZM80.56,155.44c.58-1.57,1.43-3.83,2.67-7.06.18.46.37.93.56,1.43.98,2.51,1.66,4.33,2.13,5.63-.06,0-5,0-5.36,0Z"/>
        <path class="cls-4" d="M134.05,152.57c0-3.72.07-8.49.22-14.22,7.44.27,8.93.3,9.35.3,2.39,0,4.94-1.84,4.94-5.24,0-.52-.04-1.17-.14-2.04l-.04-.42c-.43-4.87-.8-9.07-5.01-9.27l-1.03-.05-.3.14c-.58.05-1.77.13-4.18.29-5.64.37-9.74.56-12.17.56-2.77,0-8.65-.27-17.48-.79l-.58-.05h-.18c-2.08,0-3.85,1.23-4.62,3.22l-.13.35-.07.37c-.3,1.55-.49,2.81-.57,3.83l-.39,1.57c-.33,1.25-.48,2.22-.48,3.07,0,2.6,2.07,4.63,4.71,4.63,2.43,0,5.82-.12,10.29-.36.18,5.8.27,10.54.27,14.12,0,2.85-.12,7.19-.36,12.91-.24,5.82-.37,10.27-.37,13.22s2.24,5.2,5.2,5.2c.58,0,1.38-.04,2.44-.13,1.08-.09,1.56-.1,1.75-.1.21,0,.71.01,1.79.1,1.06.09,1.86.13,2.44.13,3.52,0,5.36-2.54,5.36-5.05,0-2.99-.11-7.34-.33-13.3-.21-5.76-.32-10.13-.32-12.98Z"/>
        <path class="cls-4" d="M319.62,148.09c-5.48-14.06-8.45-21.62-9.09-23.11-.47-1.09-1.72-3.97-4.85-3.97-.65,0-1.5.08-2.67.26-1.04.16-1.4.16-1.44.16-.1,0-.52-.01-1.56-.15-1.15-.16-2.01-.23-2.7-.23-1.35,0-3.78.56-5.01,4.3-1.17,3.14-2.1,5.51-2.77,7.04l-.04.1c-4.04,9.92-6.39,15.76-7.21,17.93l-6.42,17.55c-.91-.97-2.21-1.56-3.72-1.56-.69,0-1.48.09-2.51.29-.77.12-1.26.2-1.4.22-3.99.38-9.76.6-17.18.65-.03-1.01-.06-2.36-.06-4.19,0-1.31.01-3.3.04-6.02v-6.02c0-2.65.1-6.7.3-12.03.2-5.44.31-9.58.31-12.31s-2.22-4.98-5.17-4.98c-.58,0-1.37.04-2.47.13-1.11.09-1.6.1-1.8.1-.21,0-.71-.01-1.79-.1-1.06-.09-1.86-.13-2.44-.13-2.97,0-5.2,2.19-5.2,5.09s.14,7.53.4,13.43c.26,5.8.4,10.19.4,13.04s-.1,6.93-.28,12.42c0,.21-.01.4-.02.61-.46-.13-.95-.22-1.46-.22-.69,0-1.48.09-2.51.29-.77.12-1.26.2-1.4.22-3.99.38-9.76.6-17.18.65-.03-1.01-.06-2.36-.06-4.19,0-1.31.01-3.3.04-6.02v-6.02c0-2.65.1-6.7.3-12.03.2-5.44.31-9.58.31-12.31s-2.22-4.98-5.17-4.98c-.58,0-1.37.04-2.47.13-1.11.09-1.6.1-1.8.1-.21,0-.71-.01-1.79-.1-1.06-.09-1.86-.13-2.44-.13-2.97,0-5.2,2.19-5.2,5.09s.14,7.53.4,13.43c.26,5.8.4,10.19.4,13.04s-.1,6.93-.28,12.42c-.03.88-.06,1.71-.08,2.51-1.74-4.47-4.28-10.96-7.99-20.44-5.48-14.06-8.45-21.62-9.09-23.11-.47-1.09-1.72-3.97-4.85-3.97-.65,0-1.5.08-2.67.26-1.04.16-1.4.16-1.44.16-.1,0-.52-.01-1.56-.15-1.15-.16-2.01-.23-2.7-.23-1.35,0-3.78.56-5.01,4.3-1.17,3.14-2.1,5.51-2.77,7.04l-.04.1c-4.04,9.94-6.4,15.79-7.21,17.93l-9.31,25.46c-.59,1.49-.81,2.37-.81,3.23,0,2.73,2.16,4.79,5.01,4.79h8.57c4.1,0,5.31-4.53,6.49-8.9.35-1.31.64-2.19.87-2.77,1.01-.01,2.6-.02,5.1-.02h6.02c2.81,0,4.56.01,5.66.03.24.54.58,1.42.98,2.81,1.13,3.94,2.54,8.85,6.81,8.85.6,0,1.42-.04,2.51-.13,1.11-.09,1.63-.1,1.84-.1s.71.01,1.77.1c1.05.09,1.86.13,2.46.13,1.36,0,2.45-.39,3.28-1,.86.63,1.92,1,3.12,1,1.8,0,4.51-.04,8.05-.12,3.48-.08,6.13-.11,7.87-.11s4.55.11,8.21.32c3.89.22,6.73.33,8.7.33,1.62,0,3.03-.63,4.05-1.7.91.79,2.1,1.28,3.46,1.28,1.8,0,4.51-.04,8.05-.12,3.48-.08,6.13-.11,7.87-.11s4.55.11,8.21.32c3.89.22,6.73.33,8.7.33,1.31,0,2.5-.42,3.44-1.14.77.45,1.69.72,2.7.72h8.57c4.1,0,5.31-4.52,6.49-8.9.35-1.3.64-2.19.87-2.77,1.01-.01,2.6-.02,5.1-.02h6.02c2.81,0,4.56.01,5.66.03.24.54.58,1.42.98,2.81,1.13,3.94,2.54,8.85,6.81,8.85.6,0,1.42-.04,2.51-.13,1.11-.09,1.63-.1,1.84-.1s.71.01,1.76.1c1.05.09,1.86.13,2.46.13,3.39,0,5.17-2.37,5.17-4.71q0-1.07-11.75-31.1ZM164,155.44c.58-1.57,1.43-3.83,2.67-7.06.18.46.37.93.56,1.43.98,2.51,1.66,4.33,2.13,5.63-.06,0-5,0-5.36,0ZM298.76,155.44c.58-1.57,1.43-3.83,2.67-7.06.18.46.37.93.56,1.43.98,2.51,1.66,4.33,2.13,5.63-.06,0-5,0-5.36,0Z"/>
      </g>
      <g>
        <path class="cls-4" d="M435.87,124.98c-.47-1.09-1.72-3.97-4.85-3.97-.65,0-1.5.08-2.67.26-1.04.16-1.4.16-1.44.16-.1,0-.52-.01-1.56-.15-1.15-.16-2.01-.23-2.7-.23-1.35,0-3.78.56-5.01,4.3-1.17,3.14-2.1,5.51-2.77,7.04l-.04.1c-4.04,9.92-6.39,15.76-7.21,17.93l-6.59,18.01c0-.81-.01-1.64-.02-2.52-.05-5.51-.08-9.64-.08-12.4s.1-7.29.3-13.11c.2-5.91.31-10.41.31-13.36s-2.17-5.09-5.05-5.09c-.6,0-1.42.04-2.51.13-1.11.09-1.63.1-1.84.1-.19,0-.67-.01-1.73-.1-1.07-.09-1.84-.13-2.42-.13-2.49,0-5.01,1.89-5.01,5.51,0,3.32.12,8.36.36,14.97.14,3.86.24,7.16.3,9.88-9.04-11.95-16.03-21.32-20.86-27.96-.69-.91-2.11-2.79-4.57-2.79-.75,0-1.64.1-2.73.29-1.2.22-1.54.25-1.61.25-.84.07-2.06.12-3.61.14h-.1c-1.97.08-3.15.95-3.8,1.66-.85.95-1.28,2.19-1.19,3.52l.03.44c.2,4.08.33,7.18.38,9.22.23,7.92.34,13.47.34,16.48,0,2.72-.13,6.92-.39,12.46-.27,5.65-.41,9.97-.41,12.83s2.24,5.01,5.2,5.01c.58,0,1.37-.04,2.4-.13,1.02-.09,1.49-.1,1.68-.1.17,0,.62.01,1.62.1,1.03.09,1.78.13,2.34.13,2.49,0,5.01-1.89,5.01-5.51,0-3.91-.06-9.86-.19-17.68-.04-2.57-.08-4.94-.1-7.1,8.96,11.79,15.87,20.97,20.61,27.35,1.48,1.95,3.17,2.94,5.03,2.94.55,0,1.26-.04,2.25-.13.96-.09,1.36-.1,1.48-.1.08,0,.43,0,1.29.09.92.09,1.6.14,2.14.14,1.18,0,2.36-.4,3.3-1.17.87.73,2.02,1.17,3.32,1.17h8.57c4.1,0,5.31-4.52,6.49-8.9.35-1.3.64-2.19.87-2.77,1.01-.01,2.6-.02,5.1-.02h6.02c2.81,0,4.56.01,5.66.03.24.54.58,1.42.98,2.81,1.13,3.94,2.54,8.85,6.81,8.85.6,0,1.42-.04,2.51-.13,1.11-.09,1.63-.1,1.84-.1s.71.01,1.76.1c1.05.09,1.86.13,2.46.13,3.39,0,5.17-2.37,5.17-4.71q0-1.07-11.75-31.1c-5.48-14.06-8.45-21.62-9.09-23.11ZM424.09,155.44c.58-1.57,1.43-3.83,2.67-7.06.18.46.37.93.56,1.43.98,2.51,1.66,4.33,2.13,5.63-.06,0-5,0-5.36,0Z"/>
        <path class="cls-4" d="M502.91,136.76c-.04-3.17-.07-5.67-.07-7.5l-.05-3.14c-.47-2.49-2.52-4.16-5.12-4.16-.58,0-1.37.04-2.42.13-1.06.09-1.54.1-1.73.1s-.67-.01-1.75-.1c-1.06-.09-1.87-.13-2.48-.13-2.9,0-5.09,2.16-5.09,5.01,0,1.99.06,5.01.19,8.97.12,3.68.18,6.52.19,8.45-.17.59-.98,2.82-4.8,10.03-1.04,1.96-2.05,3.83-3.03,5.61-6.06-10.81-7.3-13.92-7.55-14.77.01-1.98.14-4.92.39-8.76.27-4.2.41-7.42.41-9.57,0-2.84-2.2-4.98-5.13-4.98-.58,0-1.38.04-2.44.13-1.08.09-1.56.1-1.75.1-.21,0-.71-.01-1.77-.1-1.05-.09-1.86-.13-2.46-.13-2.57,0-5.17,1.94-5.17,5.66,0,1.93-.07,4.92-.21,8.9-.14,4.04-.21,7.13-.21,9.19,0,1.34,0,2.39,8.15,17.76,7.02,13.21,8.8,16.57,9.02,16.98,1.47,2.99,3.68,3.44,4.86,3.44h7.66c.98,0,3.45-.33,5-3.35l9.46-17.62c7.96-15.03,7.96-16.32,7.96-17.68,0-1.89-.03-4.72-.08-8.49Z"/>
        <path class="cls-4" d="M591.59,166.41c-.69,0-1.48.09-2.51.29-.77.12-1.26.2-1.4.22-3.99.38-9.76.6-17.18.65-.03-1.01-.06-2.36-.06-4.19,0-1.31.01-3.3.04-6.02v-6.02c0-2.65.1-6.7.3-12.03.2-5.44.31-9.58.31-12.31s-2.22-4.98-5.17-4.98c-.58,0-1.37.04-2.47.13-1.11.09-1.6.1-1.8.1-.21,0-.71-.01-1.79-.1-1.06-.09-1.86-.13-2.44-.13-2.97,0-5.2,2.19-5.2,5.09s.14,7.53.4,13.43c.26,5.8.4,10.19.4,13.04s-.1,6.93-.28,12.42c-.03.88-.06,1.71-.08,2.51-1.74-4.47-4.28-10.96-7.99-20.44-5.48-14.06-8.45-21.62-9.09-23.11-.47-1.09-1.72-3.97-4.85-3.97-.65,0-1.5.08-2.67.26-1.04.16-1.4.16-1.44.16-.1,0-.52-.01-1.56-.15-1.15-.16-2.01-.23-2.7-.23-1.35,0-3.78.56-5.01,4.3-1.17,3.14-2.1,5.51-2.77,7.04l-.04.1c-4.04,9.92-6.39,15.76-7.21,17.93l-9.31,25.46c-.59,1.49-.81,2.37-.81,3.23,0,2.73,2.16,4.79,5.01,4.79h8.57c4.1,0,5.31-4.52,6.49-8.9.35-1.3.64-2.19.87-2.77,1.01-.01,2.6-.02,5.1-.02h6.02c2.81,0,4.56.01,5.66.03.24.54.58,1.42.98,2.81,1.13,3.94,2.54,8.85,6.81,8.85.6,0,1.42-.04,2.51-.13,1.11-.09,1.63-.1,1.84-.1s.71.01,1.76.1c1.05.09,1.86.13,2.46.13,1.36,0,2.45-.39,3.28-1,.86.63,1.92,1,3.12,1,1.8,0,4.51-.04,8.05-.12,3.48-.08,6.13-.11,7.87-.11s4.55.11,8.21.32c3.89.22,6.73.33,8.7.33,2.68,0,4.83-1.71,5.45-4.31.48-1.88.7-4.63.7-8.63,0-2.84-2.17-4.98-5.05-4.98ZM523.8,155.44c.58-1.57,1.43-3.83,2.67-7.06.18.46.37.93.56,1.43.98,2.51,1.66,4.33,2.13,5.63-.06,0-5,0-5.36,0Z"/>
      </g>
      <g>
        <path class="cls-3" d="M48.91,152.04c-.74-.41-1.1-.69-1.1-.84s.37-.47,1.1-.95c1.45-.96,2.68-2.39,3.69-4.29,1.02-1.89,1.52-3.71,1.52-5.46,0-5.08-1.93-8.82-5.79-11.24-3.17-1.98-7.43-2.97-12.76-2.97-2.29,0-5.7-.01-10.25-.04-4.55-.03-7.95-.04-10.21-.04-.63,0-.95.28-.95.84,0,2.95.13,7.37.4,13.27.27,5.9.4,10.33.4,13.27,0,2.79-.13,6.99-.4,12.59-.27,5.6-.4,9.79-.4,12.59,0,.58.32.88.95.88,1.19,0,2.99-.05,5.39-.15s4.2-.15,5.39-.15c1.62,0,4.07.04,7.33.11,3.26.08,5.71.11,7.33.11,4.34,0,7.92-1.66,10.74-4.99,2.67-3.17,4-6.97,4-11.39,0-2.23-.58-4.39-1.75-6.46-1.17-2.07-2.72-3.64-4.65-4.7ZM23.81,137.71c.08-1.68.11-2.93.11-3.77,0-.63,2.13-.95,6.4-.95s7.55.37,9.48,1.1c3.2,1.24,4.8,3.66,4.8,7.24,0,4.49-4.08,6.74-12.23,6.74-5.74,0-8.61-.37-8.61-1.1,0-.61-.01-1.52-.04-2.74-.03-1.22-.04-2.12-.04-2.7,0-.86.04-2.13.11-3.81ZM42.17,170.35c-1.75,1.04-4.63,1.56-8.65,1.56-3.2,0-5.61-.06-7.24-.19-1.62-.13-2.44-.32-2.44-.57,0-.94-.03-2.35-.08-4.23-.05-1.88-.08-3.28-.08-4.19v-6.25c0-.69,3.2-1.03,9.6-1.03,3.71,0,6.44.36,8.19,1.07,2.77,1.09,4.15,3.19,4.15,6.28,0,3.66-1.16,6.17-3.47,7.54Z"/>
        <path class="cls-3" d="M88.44,126.67c-.41-.94-.72-1.41-.95-1.41-.43,0-1.11.07-2.04.21-.93.14-1.62.21-2.08.21-.48,0-1.19-.06-2.13-.19-.94-.13-1.65-.19-2.13-.19-.36,0-.69.48-.99,1.45-1.22,3.28-2.18,5.73-2.89,7.35-3.99,9.8-6.37,15.73-7.16,17.79l-9.33,25.52c-.36.89-.53,1.46-.53,1.71,0,.36.25.53.76.53h8.57c.56,0,1.35-1.92,2.38-5.75s2-5.79,2.91-5.87c.58-.05,2.97-.08,7.16-.08h6.02c3.96,0,6.41.03,7.35.08,1.14.05,2.27,2,3.37,5.85,1.1,3.85,2.01,5.77,2.72,5.77.48,0,1.21-.04,2.17-.11.96-.08,1.69-.11,2.17-.11s1.19.04,2.11.11c.93.08,1.63.11,2.11.11.61,0,.91-.15.91-.46,0-.18-3.82-10.03-11.46-29.55-5.41-13.89-8.42-21.54-9.03-22.97ZM85.74,159.69h-3.92c-2.39,0-3.63-.01-3.73-.04-1.93-.15-2.89-.66-2.89-1.52,0-.63,2.63-7.66,7.88-21.06.91,1.78,2.48,5.51,4.68,11.2,2.29,5.87,3.43,9.17,3.43,9.9,0,1.02-1.82,1.52-5.45,1.52Z"/>
        <path class="cls-3" d="M129.8,152.57c0-4.67.11-10.88.34-18.62,8.28.3,12.77.46,13.48.46.46,0,.69-.33.69-.99,0-.36-.04-.88-.11-1.58s-.11-1.21-.11-1.54c0-2.74.02-3.97.08-3.69-.07-.43-.41-.65-.99-.67-.07.03-1.74.16-5.03.37-5.76.38-9.92.57-12.45.57-2.87,0-8.8-.27-17.79-.8l-.46-.04c-.3,0-.52.17-.65.5-.3,1.57-.48,2.81-.53,3.69-.05.2-.22.86-.5,1.98-.23.86-.34,1.52-.34,1.98,0,.25.15.38.46.38,3.05,0,7.85-.2,14.4-.61.28,7.9.42,14.1.42,18.62,0,2.92-.12,7.28-.36,13.08-.24,5.8-.36,10.15-.36,13.04,0,.63.32.95.95.95.46,0,1.16-.04,2.09-.11.94-.08,1.64-.11,2.09-.11.48,0,1.19.04,2.13.11.94.08,1.64.11,2.09.11.74,0,1.1-.27,1.1-.8,0-2.92-.11-7.3-.32-13.14-.22-5.84-.32-10.22-.32-13.14Z"/>
        <path class="cls-3" d="M171.89,126.67c-.41-.94-.72-1.41-.95-1.41-.43,0-1.11.07-2.04.21-.93.14-1.62.21-2.08.21-.48,0-1.19-.06-2.13-.19s-1.65-.19-2.13-.19c-.36,0-.69.48-.99,1.45-1.22,3.28-2.18,5.73-2.89,7.35-3.99,9.8-6.37,15.73-7.16,17.79l-9.33,25.52c-.36.89-.53,1.46-.53,1.71,0,.36.25.53.76.53h8.57c.56,0,1.35-1.92,2.38-5.75s2-5.79,2.91-5.87c.58-.05,2.97-.08,7.16-.08h6.02c3.96,0,6.41.03,7.35.08,1.14.05,2.27,2,3.37,5.85,1.1,3.85,2.01,5.77,2.72,5.77.48,0,1.21-.04,2.17-.11s1.69-.11,2.17-.11,1.19.04,2.11.11,1.63.11,2.11.11c.61,0,.91-.15.91-.46,0-.18-3.82-10.03-11.46-29.55-5.41-13.89-8.42-21.54-9.03-22.97ZM169.18,159.69h-3.92c-2.39,0-3.63-.01-3.73-.04-1.93-.15-2.89-.66-2.89-1.52,0-.63,2.63-7.66,7.88-21.06.91,1.78,2.48,5.51,4.68,11.2,2.29,5.87,3.43,9.17,3.43,9.9,0,1.02-1.82,1.52-5.45,1.52Z"/>
        <path class="cls-3" d="M231.79,170.66c-.41,0-.99.08-1.75.23-.94.15-1.52.24-1.75.27-4.77.46-11.84.69-21.21.69-.46,0-.69-2.82-.69-8.46,0-1.32.01-3.33.04-6.02v-6.02c0-2.72.1-6.78.3-12.19s.3-9.46.3-12.15c0-.48-.3-.72-.91-.72-.46,0-1.17.04-2.13.11s-1.68.11-2.13.11c-.48,0-1.19-.04-2.13-.11s-1.64-.11-2.09-.11c-.63,0-.95.28-.95.84,0,2.95.13,7.36.4,13.24.27,5.88.4,10.29.4,13.23,0,2.79-.09,6.98-.29,12.57-.19,5.59-.29,9.76-.29,12.53,0,.63.32.95.95.95,1.78,0,4.43-.04,7.96-.11s6.18-.11,7.96-.11c1.88,0,4.7.11,8.46.32,3.76.21,6.58.32,8.46.32.71,0,1.16-.37,1.33-1.1.38-1.5.57-4.02.57-7.58,0-.48-.27-.72-.8-.72Z"/>
        <path class="cls-3" d="M272.13,170.66c-.41,0-.99.08-1.75.23-.94.15-1.52.24-1.75.27-4.77.46-11.84.69-21.21.69-.46,0-.69-2.82-.69-8.46,0-1.32.01-3.33.04-6.02v-6.02c0-2.72.1-6.78.3-12.19s.3-9.46.3-12.15c0-.48-.3-.72-.91-.72-.46,0-1.17.04-2.13.11s-1.68.11-2.13.11c-.48,0-1.19-.04-2.13-.11s-1.64-.11-2.09-.11c-.63,0-.95.28-.95.84,0,2.95.13,7.36.4,13.24.27,5.88.4,10.29.4,13.23,0,2.79-.09,6.98-.29,12.57-.19,5.59-.29,9.76-.29,12.53,0,.63.32.95.95.95,1.78,0,4.43-.04,7.96-.11s6.18-.11,7.96-.11c1.88,0,4.7.11,8.46.32,3.76.21,6.58.32,8.46.32.71,0,1.16-.37,1.33-1.1.38-1.5.57-4.02.57-7.58,0-.48-.27-.72-.8-.72Z"/>
        <path class="cls-3" d="M315.66,149.64c-5.41-13.89-8.42-21.54-9.03-22.97-.41-.94-.72-1.41-.95-1.41-.43,0-1.11.07-2.04.21-.93.14-1.62.21-2.08.21-.48,0-1.19-.06-2.13-.19s-1.65-.19-2.13-.19c-.36,0-.69.48-.99,1.45-1.22,3.28-2.18,5.73-2.89,7.35-3.99,9.8-6.37,15.73-7.16,17.79l-9.33,25.52c-.36.89-.53,1.46-.53,1.71,0,.36.25.53.76.53h8.57c.56,0,1.35-1.92,2.38-5.75,1.03-3.83,2-5.79,2.91-5.87.58-.05,2.97-.08,7.16-.08h6.02c3.96,0,6.41.03,7.35.08,1.14.05,2.27,2,3.37,5.85,1.1,3.85,2.01,5.77,2.72,5.77.48,0,1.21-.04,2.17-.11s1.69-.11,2.17-.11,1.19.04,2.11.11,1.63.11,2.11.11c.61,0,.91-.15.91-.46,0-.18-3.82-10.03-11.46-29.55ZM303.93,159.69h-3.92c-2.39,0-3.63-.01-3.73-.04-1.93-.15-2.89-.66-2.89-1.52,0-.63,2.63-7.66,7.88-21.06.91,1.78,2.48,5.51,4.68,11.2,2.29,5.87,3.43,9.17,3.43,9.9,0,1.02-1.82,1.52-5.45,1.52Z"/>
      </g>
      <g>
        <path class="cls-3" d="M396.48,126.21c-.48,0-1.21.04-2.17.11s-1.69.11-2.17.11c-.46,0-1.15-.04-2.08-.11-.93-.08-1.62-.11-2.08-.11-.51,0-.76.42-.76,1.26,0,3.28.12,8.21.36,14.82s.36,11.55.36,14.85c0,3.81-.09,6.25-.27,7.31-.46-.48-.95-1.05-1.49-1.71-12.04-15.84-20.97-27.78-26.81-35.8-.56-.74-.95-1.1-1.18-1.1-.48,0-1.14.08-1.98.23-.99.18-1.66.28-2.02.3-.94.08-2.23.13-3.88.15-.63.03-.94.23-.91.61l.04.5c.2,4.16.33,7.29.38,9.37.23,8,.34,13.53.34,16.61,0,2.82-.13,7.04-.4,12.66-.27,5.62-.4,9.83-.4,12.62,0,.51.32.76.95.76.46,0,1.14-.04,2.04-.11.9-.08,1.58-.11,2.04-.11.43,0,1.09.04,1.98.11s1.55.11,1.98.11c.51,0,.76-.42.76-1.26,0-3.91-.06-9.78-.19-17.61s-.19-13.71-.19-17.62c0-1.04.13-1.56.38-1.56.28.25,1.28,1.5,3.01,3.73,11.15,14.65,19.46,25.67,24.95,33.06.63.84,1.18,1.26,1.64,1.26.41,0,1.03-.04,1.87-.11s1.46-.11,1.87-.11c.38,0,.95.04,1.71.11s1.33.11,1.71.11c.63,0,.95-.42.95-1.26,0-2.77-.03-6.91-.08-12.43-.05-5.52-.08-9.67-.08-12.44,0-2.95.1-7.36.3-13.25s.3-10.3.3-13.22c0-.56-.27-.84-.8-.84Z"/>
        <path class="cls-3" d="M431.97,126.67c-.41-.94-.72-1.41-.95-1.41-.43,0-1.11.07-2.04.21-.93.14-1.62.21-2.08.21-.48,0-1.19-.06-2.13-.19s-1.65-.19-2.13-.19c-.36,0-.69.48-.99,1.45-1.22,3.28-2.18,5.73-2.89,7.35-3.99,9.8-6.37,15.73-7.16,17.79l-9.33,25.52c-.36.89-.53,1.46-.53,1.71,0,.36.25.53.76.53h8.57c.56,0,1.35-1.92,2.38-5.75,1.03-3.83,2-5.79,2.91-5.87.58-.05,2.97-.08,7.16-.08h6.02c3.96,0,6.41.03,7.35.08,1.14.05,2.27,2,3.37,5.85,1.1,3.85,2.01,5.77,2.72,5.77.48,0,1.21-.04,2.17-.11s1.69-.11,2.17-.11,1.19.04,2.11.11,1.63.11,2.11.11c.61,0,.91-.15.91-.46,0-.18-3.82-10.03-11.46-29.55-5.41-13.89-8.42-21.54-9.03-22.97ZM429.27,159.69h-3.92c-2.39,0-3.63-.01-3.73-.04-1.93-.15-2.89-.66-2.89-1.52,0-.63,2.63-7.66,7.88-21.06.91,1.78,2.48,5.51,4.68,11.2,2.29,5.87,3.43,9.17,3.43,9.9,0,1.02-1.82,1.52-5.45,1.52Z"/>
        <path class="cls-3" d="M498.58,128.38c0-.98,0-1.47.03-1.48-.09-.46-.4-.69-.94-.69-.46,0-1.15.04-2.08.11s-1.62.11-2.08.11-1.16-.04-2.09-.11-1.65-.11-2.13-.11c-.56,0-.84.25-.84.76,0,1.96.06,4.9.19,8.84s.19,6.89.19,8.87c0,1.17-1.76,5.08-5.29,11.73-2.44,4.6-4.7,8.67-6.78,12.23-7.87-13.66-11.81-21.35-11.81-23.08,0-2.08.13-5.19.4-9.33.27-4.14.4-7.24.4-9.29,0-.48-.29-.72-.88-.72-.46,0-1.16.04-2.09.11s-1.64.11-2.09.11c-.48,0-1.19-.04-2.11-.11s-1.63-.11-2.11-.11c-.61,0-.91.47-.91,1.41,0,2.01-.07,5.02-.21,9.04-.14,4.03-.21,7.04-.21,9.05,0,.89,2.55,6.14,7.66,15.77,5.97,11.22,8.99,16.91,9.06,17.06.36.74.71,1.1,1.07,1.1h7.66c.46,0,.88-.37,1.26-1.1l9.45-17.6c4.98-9.39,7.46-14.62,7.46-15.69,0-1.88-.03-4.69-.08-8.44-.05-3.74-.08-6.56-.08-8.44Z"/>
        <path class="cls-3" d="M531.68,126.67c-.41-.94-.72-1.41-.95-1.41-.43,0-1.11.07-2.04.21-.93.14-1.62.21-2.08.21-.48,0-1.19-.06-2.13-.19s-1.65-.19-2.13-.19c-.36,0-.69.48-.99,1.45-1.22,3.28-2.18,5.73-2.89,7.35-3.99,9.8-6.37,15.73-7.16,17.79l-9.33,25.52c-.36.89-.53,1.46-.53,1.71,0,.36.25.53.76.53h8.57c.56,0,1.35-1.92,2.38-5.75,1.03-3.83,2-5.79,2.91-5.87.58-.05,2.97-.08,7.16-.08h6.02c3.96,0,6.41.03,7.35.08,1.14.05,2.27,2,3.37,5.85,1.1,3.85,2.01,5.77,2.72,5.77.48,0,1.21-.04,2.17-.11s1.69-.11,2.17-.11,1.19.04,2.11.11,1.63.11,2.11.11c.61,0,.91-.15.91-.46,0-.18-3.82-10.03-11.46-29.55-5.41-13.89-8.42-21.54-9.03-22.97ZM528.98,159.69h-3.92c-2.39,0-3.63-.01-3.73-.04-1.93-.15-2.89-.66-2.89-1.52,0-.63,2.63-7.66,7.88-21.06.91,1.78,2.48,5.51,4.68,11.2,2.29,5.87,3.43,9.17,3.43,9.9,0,1.02-1.82,1.52-5.45,1.52Z"/>
        <path class="cls-3" d="M591.59,170.66c-.41,0-.99.08-1.75.23-.94.15-1.52.24-1.75.27-4.77.46-11.84.69-21.21.69-.46,0-.69-2.82-.69-8.46,0-1.32.01-3.33.04-6.02v-6.02c0-2.72.1-6.78.3-12.19s.3-9.46.3-12.15c0-.48-.3-.72-.91-.72-.46,0-1.17.04-2.13.11s-1.68.11-2.13.11c-.48,0-1.19-.04-2.13-.11s-1.64-.11-2.09-.11c-.63,0-.95.28-.95.84,0,2.95.13,7.36.4,13.24.27,5.88.4,10.29.4,13.23,0,2.79-.09,6.98-.29,12.57-.19,5.59-.29,9.76-.29,12.53,0,.63.32.95.95.95,1.78,0,4.43-.04,7.96-.11s6.18-.11,7.96-.11c1.88,0,4.7.11,8.46.32,3.76.21,6.58.32,8.46.32.71,0,1.16-.37,1.33-1.1.38-1.5.57-4.02.57-7.58,0-.48-.27-.72-.8-.72Z"/>
      </g>
    </g>
    <path class="cls-2" d="M322.77,122.25l.1.03.06-26.98c-.05,7.64-.14,23.27-.16,26.95Z"/>
    <path class="cls-2" d="M283.81,122.24c-.02-3.27-.1-15.97-.15-24.12v24.17l.15-.05Z"/>
  </g>
</svg>